HIERARCHY
ROOT Hips
{
  OFFSET 0.0 0.0 0.0
  CHANNELS 6 XPOSITION YPOSITION ZPOSITION ZROTATION XROTATION YROTATION 
  JOINT LeftUpLeg
  {
    OFFSET 0.08945800000000001 -0.0866707 0.0010165200000000001
    CHANNELS 3 ZROTATION XROTATION YROTATION 
    JOINT LeftLeg
    {
      OFFSET 0.0 -0.444227 0.013727000000000001
      CHANNELS 3 ZROTATION XROTATION YROTATION 
      JOINT LeftFoot
      {
        OFFSET -0.0025354900000000005 -0.42092399999999996 -0.014605900000000002
        CHANNELS 3 ZROTATION XROTATION YROTATION 
        End Site
        {
          OFFSET -0.0004 -0.0441509 0.08499100000000001
        }
      }
    }
  }
  JOINT Spine
  {
    OFFSET 0.0 0.118905 0.0
    CHANNELS 3 ZROTATION XROTATION YROTATION 
    JOINT Spine1
    {
      OFFSET 0.0 0.25657399999999997 0.00127663
      CHANNELS 3 ZROTATION XROTATION YROTATION 
      End Site
      {
        OFFSET -0.0029 0.21508359999999999 0.02525291
      }
      JOINT RightArm
      {
        OFFSET -0.162727 -0.05365632 0.0010212299999999997
        CHANNELS 3 ZROTATION XROTATION YROTATION 
        JOINT RightForeArm
        {
          OFFSET -0.26364 0.00099144 -0.0142434
          CHANNELS 3 ZROTATION XROTATION YROTATION 
          End Site
          {
            OFFSET -0.220324 0.0008536199999999999 0.010221599999999999
          }
        }
      }
      JOINT LeftArm
      {
        OFFSET 0.162727 -0.053656319900000006 0.0010212299999999997
        CHANNELS 3 ZROTATION XROTATION YROTATION 
        JOINT LeftForeArm
        {
          OFFSET 0.26259699999999997 0.00099144 -0.0142434
          CHANNELS 3 ZROTATION XROTATION YROTATION 
          End Site
          {
            OFFSET 0.220902 0.0008536199999999999 0.010221599999999999
          }
        }
      }
    }
  }
  JOINT RightUpLeg
  {
    OFFSET -0.08945800000000001 -0.0866707 0.0010165200000000001
    CHANNELS 3 ZROTATION XROTATION YROTATION 
    JOINT RightLeg
    {
      OFFSET 0.0 -0.444227 0.013727000000000001
      CHANNELS 3 ZROTATION XROTATION YROTATION 
      JOINT RightFoot
      {
        OFFSET 0.0025354900000000005 -0.42092399999999996 -0.014605900000000002
        CHANNELS 3 ZROTATION XROTATION YROTATION 
        End Site
        {
          OFFSET 0.0004 -0.0441509 0.08499100000000001
        }
      }
    }
  }
}
MOTION
Frames: 7
Frame Time: 0.033333
-28.544955999999985 0.917660723765545 -0.6361944799999997 -5.40733995692815 -3.103329960010909 -92.15119790433036 -8.069739584549481 -20.140300041474365 -0.8298489343320673 1.27630995904121 28.191800459618975 24.69980135965284 2.8632639651671816 -4.555027544272116 0.058757582789107386 -0.853400013559653 8.34471958543961 1.4966199518757928 -4.78976962010123 0.6359219879096869 2.266579919935337 83.94572965436804 -20.143873937957576 22.527659477163507 12.49440016190721 46.835399440721154 -1.0360899647760402 -73.49415369584702 -16.330978890405902 -1.7084689411543164 -15.17320035438621 50.679201094267135 1.4523399422083059 -2.6625599236234145 15.273300191767333 -2.426430038732319 -0.6704109747628133 34.14759905737045 -7.068840248481227 18.175056541775767 -18.35279172435784 2.1126569112340454 
-28.576697999999986 0.9221707237655449 -0.6332080799999996 -5.355489856504468 -3.4722899487858276 -92.76680285422361 -8.691630016026435 -17.99100001911685 -0.6871669762615885 1.3002800810465467 28.170599552435256 25.209299320789942 2.580531059238854 -6.835804439284147 0.12257157329707373 -3.2387501996940475 8.398270829853448 1.1864300056491313 -2.892009883506238 0.04139549871803951 1.3549198868593562 83.49312033882796 -23.749371998909105 16.725939701803767 15.034200882134574 50.34259912668515 -7.538939970938403 -74.46197101067031 -15.369122623180735 -6.957658002284937 -15.759800905969001 51.64770142800744 1.8514100728872853 -3.858539921114399 10.202600195348424 -0.36759699250953104 -0.8400789568831596 45.24149966581781 -7.0904398679577465 19.600805597049863 -10.242847085032725 0.9436414333692135 
-28.606010999999988 0.9273307237655449 -0.6306204799999996 -5.46560018988789 -3.6002499143480198 -93.36820101064323 -8.935869896783274 -15.544600428242116 -0.18859699763139037 1.2740899341175442 27.466801492431507 25.38109906898327 2.251965022658802 -8.077008613373668 0.14462982930418858 -5.569080117134521 8.883890449652185 0.6116279655273036 -0.7193609661927378 -0.5293230120898863 0.11273499365455789 81.50359551662997 -26.73200632642695 10.529358152789127 16.768399572779153 53.54139869615015 -11.479399900297466 -74.54321611084761 -13.392531617949805 -11.374359274825485 -14.04189990045772 50.03870010484919 -0.9383880574021217 -4.312960090558164 4.262419678907831 1.3442100435190705 -1.1124999313512074 56.05489806543109 -8.08121003348687 19.230754485555032 -3.428650376074735 -0.20210815234630697 
-28.633590999999985 0.9326937237655448 -0.6285292799999996 -5.799209680839761 -3.35259984820464 -93.6726020513832 -8.837559568964696 -12.918500267851641 -0.17790000091643804 1.1504599883240227 26.70499975844872 25.813200741540374 1.472848118799798 -9.330207453419376 0.1380295987297084 -7.327790649162982 9.555000078061896 -0.023667901142303435 1.3941100182130084 -0.6733919788095537 -1.1508400243183106 77.82257434647832 -27.817362659129707 3.5287015483580206 15.91109984136854 53.88169921116769 -10.524600072258567 -73.32996960857825 -9.948181625180974 -15.80522507904417 -11.750200679189192 46.08939934938319 -4.779119647637888 -3.949179946495053 -1.3251700374340136 2.4320999495170756 -1.584290018906255 64.81409658159552 -9.423459172383913 18.044005702170733 -1.5864214648141222 -0.4881465763482297 
-28.660538999999986 0.9382507237655449 -0.6265965799999996 -6.234860063557508 -2.5830699686193945 -93.91120104965925 -8.184539696571763 -10.028000069595388 -0.11021100530250677 0.9967550120676425 25.66290072130695 26.213501053321895 0.7658819182382235 -10.74590503155615 0.12198639150384759 -7.838629888698345 10.13430001119559 -0.5456039952762282 2.829690170301984 -0.4995860226300904 -2.073329962653581 73.50478830038472 -27.168481027600155 -3.813563552316688 13.38789989591889 51.25340143741177 -6.189790206545532 -71.02165936724825 -6.4071272528221614 -20.672182240068892 -10.091800012858831 42.02439860447176 -7.791189956044375 -2.9600099662224157 -6.43737986820344 3.0516501874296535 -2.2682799967084355 70.92839996432089 -10.903100127756701 16.605646410141503 -3.157430821209522 -0.24040014050452896 
-28.686876999999985 0.9429017237655449 -0.6247266799999996 -6.594080202575988 -1.6412799434020777 -94.26600205628473 -7.276670098320022 -7.164250307223489 0.43720099574189797 0.8115449878517851 24.414601688217083 26.263001141784272 0.5225831094829646 -11.898704359670901 0.11894793115875718 -7.594660654187367 10.70400011345083 -1.021170056864382 3.558039985607576 -0.515622986636163 -2.744750151227117 69.58303711293597 -25.936244891890862 -10.476356738603474 11.399100781320211 48.09460287082095 -2.0431900453936076 -68.34193709923129 -4.283153145020228 -25.19646027269761 -8.456799574624934 39.063999957796895 -10.37660097200179 -1.8064398939485098 -11.423799599132623 3.5686901715143295 -2.9849800706109244 74.39659927012411 -12.253898955947307 15.227220320531842 -4.957125049578998 -0.0031288575902631063 
-28.712450999999987 0.9462067237655448 -0.6229183799999997 -6.861909849178759 -0.8598829836599058 -94.61889744013178 -6.526659832165616 -4.528219905553462 1.1390300936348294 0.617863021105026 23.268301285097596 26.070299307183408 0.261239954796737 -12.90380255453142 0.10779032356165211 -7.307289836369189 11.457299969464243 -1.5710600492056461 4.062330140945954 -0.9133500780087359 -3.4038800547194494 66.22242694693878 -25.036282091377057 -15.826595033409848 10.247999608987852 46.18790092249853 0.5643610287584054 -65.66974852986887 -3.2686092254244046 -28.64756873765017 -6.34944032886588 35.93819803508641 -13.321800740226092 -0.7728170148450194 -16.168599680625313 4.121369869244721 -3.324789879225287 75.28250212623145 -13.111000611871988 14.004587430795587 -6.161004801175337 0.12260270935473547 
